<?xml version="1.0" encoding="UTF-8" standalone="no"?>
<svg
   width="124.44pt"
   height="144.00pt"
   viewBox="0 0 124.44 144.00"
   version="1.1"
   id="svg52109"
   sodipodi:docname="ricci.svg"
   inkscape:version="1.2.2 (b0a8486541, 2022-12-01)"
   xmlns:inkscape="http://www.inkscape.org/namespaces/inkscape"
   xmlns:sodipodi="http://sodipodi.sourceforge.net/DTD/sodipodi-0.dtd"
   xmlns="http://www.w3.org/2000/svg"
   xmlns:svg="http://www.w3.org/2000/svg">
  <defs
     id="defs52113" />
  <sodipodi:namedview
     id="namedview52111"
     pagecolor="#ffffff"
     bordercolor="#000000"
     borderopacity="0.25"
     inkscape:showpageshadow="2"
     inkscape:pageopacity="0.0"
     inkscape:pagecheckerboard="0"
     inkscape:deskcolor="#d1d1d1"
     inkscape:document-units="pt"
     showgrid="false"
     inkscape:zoom="1.5507813"
     inkscape:cx="-76.090678"
     inkscape:cy="57.390426"
     inkscape:window-width="2560"
     inkscape:window-height="1341"
     inkscape:window-x="0"
     inkscape:window-y="0"
     inkscape:window-maximized="1"
     inkscape:current-layer="svg52109" />
  <g
     class="svglite"
     id="g52107">
    <defs
       id="defs51981">
      <style
         type="text/css"
         id="style51979"><![CDATA[
    .svglite line, .svglite polyline, .svglite polygon, .svglite path, .svglite rect, .svglite circle {
      fill: none;
      stroke: #000000;
      stroke-linecap: round;
      stroke-linejoin: round;
      stroke-miterlimit: 10.00;
    }
    .svglite text {
      white-space: pre;
    }
    .svglite g.glyphgroup path {
      fill: inherit;
      stroke: none;
    }
  ]]></style>
    </defs>
    <rect
       width="100%"
       height="100%"
       style="stroke: none; fill: none;"
       id="rect51983" />
    <defs
       id="defs51988">
      <clipPath
         id="cpMC4wMHwxMjQuNDR8MC4wMHwxNDQuMDA=">
        <rect
           x="0.00"
           y="0.00"
           width="124.44"
           height="144.00"
           id="rect51985" />
      </clipPath>
    </defs>
    <g
       clip-path="url(#cpMC4wMHwxMjQuNDR8MC4wMHwxNDQuMDA=)"
       id="g51990" />
    <defs
       id="defs51995">
      <clipPath
         id="cpMC4wMHwxMjQuNDR8MC4xNHwxNDMuODY=">
        <rect
           x="0.00"
           y="0.14"
           width="124.44"
           height="143.71"
           id="rect51992" />
      </clipPath>
    </defs>
    <g
       clip-path="url(#cpMC4wMHwxMjQuNDR8MC4xNHwxNDMuODY=)"
       id="g51999">
      <rect
         x="0.00"
         y="0.14"
         width="124.44"
         height="143.71"
         style="stroke-width: 1.07; stroke: none;"
         id="rect51997" />
    </g>
    <g
       clip-path="url(#cpMC4wMHwxMjQuNDR8MC4wMHwxNDQuMDA=)"
       id="g52001" />
    <defs
       id="defs52006">
      <clipPath
         id="cpMC4wMHwxMjQuNDR8MC4xNHwxNDQuMDA=">
        <rect
           x="0.00"
           y="0.14"
           width="124.44"
           height="143.85"
           id="rect52003" />
      </clipPath>
    </defs>
    <g
       clip-path="url(#cpMC4wMHwxMjQuNDR8MC4xNHwxNDQuMDA=)"
       id="g52012">
      <rect
         x="-0.14"
         y="0.14"
         width="124.58"
         height="143.85"
         style="stroke-width: 1.07; stroke: none;"
         id="rect52008" />
      <polygon
         points="1.08,36.81 1.08,107.33 62.15,142.59 123.22,107.33 123.22,36.81 62.15,1.55 1.08,36.81 "
         style="stroke-width: 2.56; stroke: none; stroke-linecap: butt; fill: #FFFFFF;"
         id="polygon52010" />
    </g>
    <defs
       id="defs52017">
      <clipPath
         id="cpNS43NHwxMTguNTZ8MTUuNjZ8MTI4LjQ4">
        <rect
           x="5.74"
           y="15.66"
           width="112.83"
           height="112.83"
           id="rect52014" />
      </clipPath>
    </defs>
    <g
       clip-path="url(#cpNS43NHwxMTguNTZ8MTUuNjZ8MTI4LjQ4)"
       id="g52019" />
    <g
       clip-path="url(#cpMC4wMHwxMjQuNDR8MC4xNHwxNDQuMDA=)"
       id="g52021" />
    <g
       clip-path="url(#cpMC4wMHwxMjQuNDR8MC4wMHwxNDQuMDA=)"
       id="g52023" />
    <g
       clip-path="url(#cpMC4wMHwxMjQuNDR8MC4xNHwxNDQuMDA=)"
       id="g52025" />
    <g
       clip-path="url(#cpMC4wMHwxMjQuNDR8MC4wMHwxNDQuMDA=)"
       id="g52027" />
    <g
       clip-path="url(#cpMC4wMHwxMjQuNDR8MC4xNHwxNDQuMDA=)"
       id="g52029" />
    <g
       clip-path="url(#cpMC4wMHwxMjQuNDR8MC4wMHwxNDQuMDA=)"
       id="g52031" />
    <g
       clip-path="url(#cpMC4wMHwxMjQuNDR8MC4xNHwxNDQuMDA=)"
       id="g52033" />
    <g
       clip-path="url(#cpMC4wMHwxMjQuNDR8MC4wMHwxNDQuMDA=)"
       id="g52035" />
    <g
       clip-path="url(#cpMC4wMHwxMjQuNDR8MC4xNHwxNDQuMDA=)"
       id="g52037" />
    <g
       clip-path="url(#cpMC4wMHwxMjQuNDR8MC4wMHwxNDQuMDA=)"
       id="g52039" />
    <g
       clip-path="url(#cpMC4wMHwxMjQuNDR8MC4xNHwxNDQuMDA=)"
       id="g52041" />
    <g
       clip-path="url(#cpMC4wMHwxMjQuNDR8MC4wMHwxNDQuMDA=)"
       id="g52043" />
    <g
       clip-path="url(#cpMC4wMHwxMjQuNDR8MC4xNHwxNDQuMDA=)"
       id="g52045" />
    <g
       clip-path="url(#cpMC4wMHwxMjQuNDR8MC4wMHwxNDQuMDA=)"
       id="g52047" />
    <g
       clip-path="url(#cpMC4wMHwxMjQuNDR8MC4xNHwxNDQuMDA=)"
       id="g52049" />
    <g
       clip-path="url(#cpMC4wMHwxMjQuNDR8MC4wMHwxNDQuMDA=)"
       id="g52051" />
    <g
       clip-path="url(#cpMC4wMHwxMjQuNDR8MC4xNHwxNDQuMDA=)"
       id="g52053" />
    <g
       clip-path="url(#cpMC4wMHwxMjQuNDR8MC4wMHwxNDQuMDA=)"
       id="g52055" />
    <g
       clip-path="url(#cpMC4wMHwxMjQuNDR8MC4xNHwxNDQuMDA=)"
       id="g52057" />
    <g
       clip-path="url(#cpMC4wMHwxMjQuNDR8MC4wMHwxNDQuMDA=)"
       id="g52059" />
    <g
       clip-path="url(#cpMC4wMHwxMjQuNDR8MC4xNHwxNDQuMDA=)"
       id="g52061" />
    <g
       clip-path="url(#cpMC4wMHwxMjQuNDR8MC4wMHwxNDQuMDA=)"
       id="g52063" />
    <g
       clip-path="url(#cpMC4wMHwxMjQuNDR8MC4xNHwxNDQuMDA=)"
       id="g52065" />
    <g
       clip-path="url(#cpMC4wMHwxMjQuNDR8MC4wMHwxNDQuMDA=)"
       id="g52067" />
    <g
       clip-path="url(#cpMC4wMHwxMjQuNDR8MC4xNHwxNDQuMDA=)"
       id="g52069" />
    <g
       clip-path="url(#cpMC4wMHwxMjQuNDR8MC4wMHwxNDQuMDA=)"
       id="g52071" />
    <g
       clip-path="url(#cpMC4wMHwxMjQuNDR8MC4xNHwxNDQuMDA=)"
       id="g52073" />
    <g
       clip-path="url(#cpMC4wMHwxMjQuNDR8MC4wMHwxNDQuMDA=)"
       id="g52075" />
    <g
       clip-path="url(#cpMC4wMHwxMjQuNDR8MC4xNHwxNDQuMDA=)"
       id="g52077" />
    <g
       clip-path="url(#cpMC4wMHwxMjQuNDR8MC4wMHwxNDQuMDA=)"
       id="g52079" />
    <g
       clip-path="url(#cpMC4wMHwxMjQuNDR8MC4xNHwxNDQuMDA=)"
       id="g52081" />
    <g
       clip-path="url(#cpMC4wMHwxMjQuNDR8MC4wMHwxNDQuMDA=)"
       id="g52083" />
    <g
       clip-path="url(#cpMC4wMHwxMjQuNDR8MC4xNHwxNDQuMDA=)"
       id="g52085" />
    <g
       clip-path="url(#cpMC4wMHwxMjQuNDR8MC4wMHwxNDQuMDA=)"
       id="g52087" />
    <g
       clip-path="url(#cpMC4wMHwxMjQuNDR8MC4xNHwxNDQuMDA=)"
       id="g52089" />
    <g
       clip-path="url(#cpMC4wMHwxMjQuNDR8MC4wMHwxNDQuMDA=)"
       id="g52091" />
    <g
       clip-path="url(#cpMC4wMHwxMjQuNDR8MC4xNHwxNDQuMDA=)"
       id="g52093" />
    <g
       clip-path="url(#cpMC4wMHwxMjQuNDR8MC4wMHwxNDQuMDA=)"
       id="g52095" />
    <g
       clip-path="url(#cpMC4wMHwxMjQuNDR8MC4xNHwxNDQuMDA=)"
       id="g52097" />
    <g
       clip-path="url(#cpMC4wMHwxMjQuNDR8MC4wMHwxNDQuMDA=)"
       id="g52099" />
    <g
       clip-path="url(#cpMC4wMHwxMjQuNDR8MC4xNHwxNDQuMDA=)"
       id="g52103">
      <polygon
         points="1.08,36.81 1.08,107.33 62.15,142.59 123.22,107.33 123.22,36.81 62.15,1.55 1.08,36.81 "
         style="stroke-width: 2.56; stroke-linecap: butt;"
         id="polygon52101" />
    </g>
    <g
       clip-path="url(#cpMC4wMHwxMjQuNDR8MC4wMHwxNDQuMDA=)"
       id="g52105" />
  </g>
  <g
     stroke="#000000"
     fill="#000000"
     stroke-width="0"
     transform="matrix(0.05482953,0,0,-0.05482953,9.147246,88.684196)"
     id="g42092">
    <g
       data-mml-node="math"
       id="g42090">
      <g
         data-mml-node="msubsup"
         id="g42088">
        <g
           data-mml-node="mi"
           id="g42058">
          <path
             id="use42056"
             d="m 230,637 q -27,0 -32,1 -5,1 -5,11 0,27 11,33 2,1 174,1 172,-1 186,-3 56,-8 94,-28 38,-20 54,-46 16,-26 21,-43 5,-17 6,-34 0,-45 -29,-84 -29,-39 -67,-60 -38,-21 -67,-34 -29,-13 -38,-13 l 7,-5 q 67,-38 67,-110 0,-11 -5,-61 -5,-50 -5,-82 v -9 q 0,-18 1,-28 1,-10 11,-18 10,-8 26,-9 28,0 46,22 18,22 26,47 5,14 8,17 3,3 15,3 20,0 20,-12 0,-18 -24,-57 -38,-57 -90,-57 h -9 q -61,0 -101,25 -40,25 -44,78 0,27 15,84 15,57 15,73 0,51 -43,74 -15,7 -25,8 -10,1 -71,2 H 309 L 277,193 Q 244,61 244,59 q 0,-4 1,-5 1,-1 7,-4 6,-3 17,-2 11,1 33,-2 h 31 q 6,-8 6,-9 0,-1 -3,-18 Q 332,6 326,0 H 311 Q 275,2 180,2 146,2 117,2 88,2 71,2 54,2 50,1 33,1 33,10 q 0,2 3,14 5,19 10,21 4,1 15,1 h 6 q 27,0 60,3 14,3 19,12 3,4 72,278 69,274 69,289 0,7 -57,9 z m 400,-83 q 0,32 -21,54 -21,22 -86,28 -2,0 -23,0 -21,0 -38,1 h -22 q -47,0 -54,-10 -1,-3 -34,-133 -33,-130 -33,-133 0,-1 69,-1 78,1 104,7 64,10 100,59 16,23 27,60 11,37 11,68 z" />
        </g>
        <g
           data-mml-node="TeXAtom"
           transform="matrix(0.707,0,0,0.707,792,413)"
           data-mjx-texclass="ORD"
           id="g42068">
          <g
             data-mml-node="mi"
             id="g42062">
            <path
               id="use42060"
               d="m 184,600 q 0,24 19,42 19,18 44,19 18,0 30,-12 12,-12 13,-30 0,-23 -20,-42 -20,-19 -44,-20 -15,0 -28,10 -13,10 -14,33 z M 21,287 q 0,8 9,31 9,23 24,51 15,28 44,51 29,23 60,22 39,0 65,-23 26,-23 27,-62 0,-17 -14,-56 -14,-39 -40,-105 -26,-66 -42,-113 -5,-22 -5,-32 0,-25 17,-25 9,0 19,3 10,3 23,14 13,11 27,35 14,24 25,59 3,12 5,14 2,2 17,2 20,0 20,-10 0,-8 -9,-31 -9,-23 -25,-51 -16,-28 -45,-50 -29,-22 -62,-22 -32,0 -59,21 -27,21 -28,64 0,17 5,32 5,15 43,114 38,101 44,121 6,20 7,39 0,24 -17,24 h -2 q -30,0 -55,-33 -25,-33 -38,-84 -1,-1 -2,-3 -1,-2 -1,-3 0,-1 -2,-2 -2,-1 -3,-1 -1,0 -4,0 -3,0 -8,0 H 27 q -6,6 -6,9 z" />
          </g>
          <g
             data-mml-node="mi"
             transform="translate(345)"
             id="g42066">
            <path
               id="use42064"
               d="m 34,159 q 0,109 86,196 86,87 186,87 56,0 88,-24 32,-24 33,-63 0,-29 -19,-49 -19,-20 -48,-21 -19,0 -30,10 -11,10 -11,30 0,20 11,34 11,14 22,21 11,7 14,6 h 1 q 0,2 -6,6 -6,4 -21,8 -15,4 -34,4 -30,0 -57,-14 -21,-9 -43,-31 -44,-44 -64,-124 -20,-80 -21,-116 0,-46 26,-69 22,-24 58,-24 h 4 q 112,0 185,85 9,10 12,10 4,0 13,-9 9,-9 10,-14 1,-5 -9,-15 Q 410,73 391,55 372,37 346,25 320,13 282,0 244,-13 202,-11 127,-11 81,37 35,85 34,159 Z" />
          </g>
        </g>
        <g
           data-mml-node="TeXAtom"
           transform="matrix(0.707,0,0,0.707,792,-247)"
           data-mjx-texclass="ORD"
           id="g42086">
          <g
             data-mml-node="mstyle"
             transform="scale(1.414)"
             id="g42072">
            <g
               data-mml-node="mspace"
               id="g42070" />
          </g>
          <g
             data-mml-node="mstyle"
             transform="matrix(1.414,0,0,1.414,393.2,0)"
             id="g42076">
            <g
               data-mml-node="mspace"
               id="g42074" />
          </g>
          <g
             data-mml-node="mi"
             transform="translate(786.3)"
             id="g42080">
            <path
               id="use42078"
               d="m 34,159 q 0,109 86,196 86,87 186,87 56,0 88,-24 32,-24 33,-63 0,-29 -19,-49 -19,-20 -48,-21 -19,0 -30,10 -11,10 -11,30 0,20 11,34 11,14 22,21 11,7 14,6 h 1 q 0,2 -6,6 -6,4 -21,8 -15,4 -34,4 -30,0 -57,-14 -21,-9 -43,-31 -44,-44 -64,-124 -20,-80 -21,-116 0,-46 26,-69 22,-24 58,-24 h 4 q 112,0 185,85 9,10 12,10 4,0 13,-9 9,-9 10,-14 1,-5 -9,-15 Q 410,73 391,55 372,37 346,25 320,13 282,0 244,-13 202,-11 127,-11 81,37 35,85 34,159 Z" />
          </g>
          <g
             data-mml-node="mi"
             transform="translate(1219.3)"
             id="g42084">
            <path
               id="use42082"
               d="m 184,600 q 0,24 19,42 19,18 44,19 18,0 30,-12 12,-12 13,-30 0,-23 -20,-42 -20,-19 -44,-20 -15,0 -28,10 -13,10 -14,33 z M 21,287 q 0,8 9,31 9,23 24,51 15,28 44,51 29,23 60,22 39,0 65,-23 26,-23 27,-62 0,-17 -14,-56 -14,-39 -40,-105 -26,-66 -42,-113 -5,-22 -5,-32 0,-25 17,-25 9,0 19,3 10,3 23,14 13,11 27,35 14,24 25,59 3,12 5,14 2,2 17,2 20,0 20,-10 0,-8 -9,-31 -9,-23 -25,-51 -16,-28 -45,-50 -29,-22 -62,-22 -32,0 -59,21 -27,21 -28,64 0,17 5,32 5,15 43,114 38,101 44,121 6,20 7,39 0,24 -17,24 h -2 q -30,0 -55,-33 -25,-33 -38,-84 -1,-1 -2,-3 -1,-2 -1,-3 0,-1 -2,-2 -2,-1 -3,-1 -1,0 -4,0 -3,0 -8,0 H 27 q -6,6 -6,9 z" />
          </g>
        </g>
      </g>
    </g>
  </g>
</svg>
